<?xml version="1.0" encoding="utf-8"?>
<svg xmlns="http://www.w3.org/2000/svg" x="0px" y="0px" width="250px" height="250px">
<path fill="none" stroke="#000000" stroke-width="0.4182" d="M38.43,124.96c0-47.82,38.77-86.59,86.59-86.59
	c47.82,0,86.59,38.77,86.59,86.59c0,47.82-38.77,86.59-86.59,86.59C77.2,211.55,38.43,172.78,38.43,124.96z M125.02,214.52
	c49.46,0,89.55-40.1,89.55-89.55s-40.1-89.55-89.55-89.55c-49.46,0-89.55,40.1-89.55,89.55S75.56,214.52,125.02,214.52z"/>
<path fill="none" stroke="#000000" stroke-width="0.3346" d="M125.02,176.46c-3.47,3.13-9.86,6.61,0,6.61
	S128.5,179.59,125.02,176.46z"/>
<path fill="none" stroke="#000000" stroke-width="0.251" d="M125.02,176.46v-36c14.13-10.48,22.1,1.82,42.38,0.68l13.67,33.27
	C155.68,177.59,145.03,154.52,125.02,176.46z M181.08,174.41l1.52,2.58c-27,2.28-33.95-16.52-55.15,1.48l1.48,1.25
	c18.36-13.68,30.2,1.31,55.03-0.68l-1.37-2.05 M125.02,176.46v-36c-14.13-10.48-22.1,1.82-42.38,0.68l-13.67,33.27
	C94.37,177.59,105.01,154.52,125.02,176.46z M67.44,176.99l-1.37,2.05c24.83,2,36.67-12.99,55.03,0.68l1.48-1.25
	C101.39,160.47,94.45,179.27,67.44,176.99l1.52-2.58"/>
<path d="M56.43,23.1c0.4-1.71,1.44-2.47,2.56-2.96c1.95-0.85,4.07-1,5.7-0.4c2.62,0.97,1.31,1.77,7.63,1.65
	C67.44,29.22,65.38,20.51,56.43,23.1z M80.15,17.77c-6.31-0.36-4.95-1.05-7.49-2.21c-1.58-0.72-3.71-0.73-5.71-0.03
	c-1.16,0.41-2.25,1.09-2.78,2.76C73.29,16.37,74.7,25.21,80.15,17.77z M88.23,14.74c-6.27-0.82-4.86-1.42-7.31-2.76
	c-1.52-0.84-3.64-1-5.69-0.45c-1.18,0.32-2.33,0.92-2.97,2.55C81.48,12.83,82.23,21.75,88.23,14.74z M96.5,12.31
	c-6.19-1.29-4.74-1.77-7.08-3.3c-1.46-0.95-3.56-1.27-5.64-0.87c-1.2,0.23-2.39,0.74-3.15,2.32C89.92,9.91,90.01,18.86,96.5,12.31z
	 M104.94,10.5c-6.08-1.74-4.59-2.12-6.82-3.81c-1.38-1.05-3.45-1.53-5.56-1.29c-1.22,0.14-2.44,0.56-3.32,2.08
	C98.55,7.62,97.97,16.56,104.94,10.5z M113.48,9.33c-5.93-2.19-4.42-2.46-6.51-4.31c-1.3-1.15-3.33-1.78-5.45-1.69
	c-1.22,0.05-2.47,0.38-3.46,1.83C107.33,5.98,106.09,14.85,113.48,9.33z M122.09,8.79c-5.76-2.62-4.23-2.78-6.18-4.78
	c-1.21-1.25-3.19-2.02-5.31-2.1c-1.22-0.04-2.49,0.2-3.59,1.57C116.2,4.99,114.31,13.75,122.09,8.79z M130.72,8.89
	c-5.55-3.04-4.01-3.08-5.81-5.23c-1.12-1.33-3.03-2.26-5.14-2.48c-1.22-0.13-2.5,0.01-3.7,1.3C125.12,4.67,122.58,13.26,130.72,8.89
	z M139.31,9.63c-5.3-3.44-3.77-3.37-5.4-5.64c-1.01-1.41-2.85-2.47-4.94-2.86c-1.21-0.22-2.5-0.17-3.78,1.02
	C134.04,5.01,130.88,13.38,139.31,9.63z M147.82,11.01c-5.03-3.83-3.51-3.64-4.97-6.03c-0.91-1.48-2.66-2.68-4.72-3.22
	c-1.18-0.31-2.48-0.36-3.85,0.74C142.92,6.01,139.14,14.12,147.82,11.01z M156.21,13.01c-4.74-4.19-3.23-3.89-4.51-6.38
	c-0.79-1.55-2.46-2.87-4.47-3.56c-1.16-0.4-2.44-0.54-3.89,0.45C151.69,7.66,147.32,15.48,156.21,13.01z M164.43,15.64
	c-4.41-4.53-2.93-4.12-4.02-6.7c-0.68-1.6-2.24-3.04-4.19-3.88c-1.13-0.48-2.4-0.72-3.92,0.16
	C160.32,9.96,155.38,17.43,164.43,15.64z M172.43,18.86c-4.06-4.85-2.62-4.33-3.52-6.98c-0.56-1.65-2-3.2-3.89-4.18
	c-1.09-0.56-2.34-0.9-3.92-0.13C168.75,12.89,163.27,19.98,172.43,18.86z M180.17,22.67c-3.69-5.13-2.29-4.51-2.99-7.22
	c-0.43-1.68-1.76-3.34-3.57-4.46c-1.04-0.64-2.26-1.07-3.9-0.42C176.94,16.45,170.95,23.1,180.17,22.67z M187.61,27.04
	c-3.3-5.39-1.95-4.67-2.44-7.42c-0.31-1.71-1.51-3.46-3.23-4.71c-0.99-0.72-2.18-1.23-3.85-0.71
	C184.85,20.59,178.38,26.79,187.61,27.04z M194.7,31.95c-2.89-5.62-1.6-4.8-1.89-7.58c-0.18-1.73-1.25-3.56-2.87-4.94
	c-0.94-0.79-2.08-1.39-3.79-0.99C192.43,25.32,185.52,31.02,194.7,31.95z M201.41,37.37c-2.47-5.82-1.24-4.91-1.32-7.7
	c-0.05-1.74-0.98-3.65-2.5-5.14c-0.88-0.86-1.97-1.54-3.71-1.27C199.63,30.59,192.32,35.76,201.41,37.37z M207.7,43.28
	c-2.03-5.99-0.87-4.98-0.75-7.78c0.08-1.74-0.71-3.71-2.11-5.31c-0.81-0.92-1.85-1.68-3.6-1.54C206.43,36.39,198.75,41,207.7,43.28z
	 M213.53,49.64c-1.58-6.12-0.5-5.04-0.17-7.81c0.21-1.73-0.43-3.75-1.71-5.45c-0.74-0.98-1.72-1.82-3.48-1.81
	C212.77,42.67,204.78,46.7,213.53,49.64z M218.87,56.41c-1.12-6.23-0.12-5.06,0.41-7.8c0.34-1.71-0.15-3.77-1.3-5.56
	c-0.66-1.03-1.58-1.94-3.33-2.06C218.64,49.4,210.36,52.83,218.87,56.41z M223.7,63.56c-0.66-6.29,0.25-5.05,0.99-7.75
	c0.46-1.68,0.13-3.78-0.89-5.64c-0.58-1.08-1.43-2.05-3.17-2.3C223.98,56.55,215.48,59.36,223.7,63.56z M227.98,71.04
	c-0.19-6.32,0.63-5.02,1.56-7.65c0.58-1.64,0.41-3.76-0.47-5.69c-0.5-1.12-1.28-2.15-2.99-2.53
	C228.79,64.08,220.1,66.25,227.98,71.04z M231.7,78.83c0.28-6.32,1-4.96,2.13-7.52c0.7-1.59,0.69-3.71-0.04-5.71
	c-0.42-1.15-1.12-2.24-2.8-2.74C233.02,71.95,224.19,73.46,231.7,78.83z M234.83,86.87c0.75-6.28,1.36-4.87,2.68-7.34
	c0.82-1.53,0.96-3.65,0.38-5.7c-0.33-1.18-0.95-2.32-2.59-2.94C236.65,80.1,227.74,80.96,234.83,86.87z M237.35,95.12
	c1.21-6.21,1.72-4.76,3.21-7.12c0.93-1.47,1.23-3.57,0.8-5.66c-0.24-1.2-0.77-2.38-2.36-3.13C239.67,88.5,230.72,88.7,237.35,95.12z
	 M239.26,103.53c1.67-6.1,2.07-4.62,3.73-6.86c1.04-1.39,1.49-3.47,1.22-5.58c-0.15-1.22-0.59-2.43-2.12-3.29
	C242.06,97.11,233.12,96.63,239.26,103.53z M240.53,112.06c2.12-5.96,2.4-4.45,4.23-6.57c1.14-1.31,1.74-3.35,1.63-5.47
	c-0.06-1.22-0.41-2.47-1.87-3.44C243.81,105.87,234.92,104.73,240.53,112.06z M241.17,120.67c2.55-5.79,2.73-4.26,4.71-6.23
	c1.23-1.23,1.99-3.21,2.03-5.34c0.03-1.22-0.23-2.49-1.61-3.57C244.9,114.73,236.12,112.94,241.17,120.67z M241.17,129.29
	c2.98-5.58,3.04-4.05,5.16-5.87c1.32-1.13,2.22-3.06,2.42-5.17c0.12-1.22-0.04-2.5-1.34-3.68
	C245.33,123.65,236.71,121.21,241.17,129.29z M247.84,123.68c-2.75,8.9-11.16,5.83-7.31,14.22c3.38-5.35,3.33-3.81,5.58-5.47
	c1.4-1.03,2.44-2.88,2.8-4.98C249.12,126.24,249.05,124.95,247.84,123.68z M239.25,146.43c3.77-5.08,3.6-3.55,5.97-5.04
	c1.47-0.92,2.65-2.69,3.16-4.76c0.3-1.19,0.33-2.48-0.78-3.84C244.2,141.46,236.04,137.78,239.25,146.43z M237.35,154.84
	c4.14-4.79,3.86-3.28,6.33-4.58c1.54-0.81,2.84-2.49,3.5-4.51c0.38-1.16,0.51-2.45-0.5-3.89
	C242.65,150.26,234.78,145.97,237.35,154.84z M234.82,163.09c4.48-4.47,4.09-2.98,6.65-4.1c1.59-0.7,3.02-2.27,3.83-4.24
	c0.47-1.13,0.69-2.4-0.21-3.91C240.45,158.91,232.92,154.06,234.82,163.09z M231.69,171.13c4.8-4.12,4.3-2.67,6.93-3.6
	c1.64-0.58,3.18-2.04,4.13-3.94c0.55-1.09,0.87-2.35,0.09-3.92C237.61,167.38,230.47,161.98,231.69,171.13z M227.98,178.92
	c5.09-3.75,4.49-2.35,7.18-3.07c1.68-0.45,3.32-1.8,4.42-3.62c0.63-1.05,1.04-2.28,0.38-3.9
	C234.16,175.61,227.43,169.7,227.98,178.92z M223.69,186.4c5.36-3.37,4.65-2.01,7.39-2.53c1.71-0.33,3.45-1.55,4.67-3.29
	c0.71-1,1.21-2.19,0.66-3.86C230.1,183.57,223.83,177.17,223.69,186.4z M218.86,193.56c5.59-2.96,4.78-1.66,7.56-1.98
	c1.73-0.2,3.55-1.29,4.9-2.93c0.78-0.95,1.36-2.1,0.95-3.8C225.47,191.2,219.69,184.36,218.86,193.56z M213.52,200.33
	c5.79-2.54,4.89-1.3,7.68-1.41c1.74-0.07,3.64-1.02,5.11-2.56c0.85-0.88,1.52-1.99,1.23-3.72
	C220.28,198.47,215.02,191.22,213.52,200.33z M207.68,206.68c5.97-2.1,4.97-0.93,7.77-0.84c1.74,0.06,3.7-0.75,5.28-2.17
	c0.91-0.82,1.66-1.87,1.5-3.62C214.56,205.33,209.86,197.71,207.68,206.68z M201.39,212.59c6.11-1.65,5.03-0.56,7.81-0.26
	c1.73,0.19,3.75-0.47,5.43-1.78c0.97-0.75,1.79-1.74,1.76-3.5C208.36,211.76,204.23,203.8,201.39,212.59z M194.69,218.01
	c6.21-1.19,5.06-0.18,7.81,0.32c1.71,0.32,3.77-0.2,5.55-1.37c1.02-0.68,1.92-1.61,2.02-3.36
	C201.69,217.7,198.16,209.46,194.69,218.01z M187.59,222.93c6.28-0.73,5.06,0.19,7.76,0.9c1.68,0.44,3.78,0.08,5.63-0.95
	c1.07-0.6,2.03-1.46,2.26-3.2C194.6,223.13,191.7,214.66,187.59,222.93z M180.15,227.3c6.32-0.26,5.03,0.57,7.67,1.47
	c1.64,0.56,3.76,0.37,5.69-0.53c1.11-0.52,2.14-1.3,2.49-3.02C187.13,228.02,184.86,219.35,180.15,227.3z M172.41,231.11
	c6.32,0.21,4.97,0.94,7.54,2.04c1.6,0.68,3.72,0.64,5.71-0.11c1.15-0.43,2.23-1.14,2.71-2.83
	C179.31,232.35,177.69,223.53,172.41,231.11z M164.41,234.33c6.29,0.67,4.89,1.3,7.37,2.59c1.54,0.8,3.67,0.92,5.7,0.31
	c1.18-0.35,2.3-0.97,2.91-2.62C171.2,236.08,170.24,227.17,164.41,234.33z M156.19,236.95c6.22,1.14,4.78,1.66,7.16,3.13
	c1.48,0.91,3.59,1.19,5.67,0.74c1.2-0.26,2.37-0.8,3.1-2.4C162.83,239.2,162.53,230.24,156.19,236.95z M147.8,238.95
	c6.12,1.6,4.64,2.01,6.91,3.65c1.41,1.02,3.49,1.45,5.59,1.15c1.21-0.17,2.42-0.62,3.27-2.16
	C154.25,241.69,154.62,232.74,147.8,238.95z M139.28,240.33c5.99,2.05,4.48,2.35,6.62,4.16c1.33,1.12,3.37,1.7,5.49,1.57
	c1.22-0.08,2.46-0.44,3.42-1.91C145.51,243.53,146.55,234.63,139.28,240.33z M130.68,241.07c5.82,2.49,4.3,2.68,6.29,4.64
	c1.24,1.22,3.24,1.95,5.36,1.97c1.23,0.01,2.49-0.26,3.55-1.65C136.66,244.73,138.35,235.93,130.68,241.07z M122.05,241.17
	c5.62,2.91,4.09,2.99,5.93,5.09c1.15,1.31,3.08,2.18,5.2,2.36c1.22,0.1,2.5-0.07,3.67-1.39
	C127.75,245.26,130.08,236.61,122.05,241.17z M113.44,240.63c5.39,3.32,3.85,3.28,5.54,5.51c1.05,1.39,2.91,2.41,5.01,2.74
	c1.21,0.19,2.5,0.11,3.76-1.11C118.82,245.13,121.79,236.68,113.44,240.63z M104.89,239.46c5.12,3.71,3.6,3.56,5.11,5.91
	c0.94,1.46,2.73,2.62,4.8,3.11c1.19,0.28,2.48,0.3,3.83-0.83C109.92,244.34,113.51,236.14,104.89,239.46z M96.46,237.65
	c4.84,4.08,3.32,3.82,4.66,6.27c0.83,1.53,2.52,2.81,4.55,3.45c1.17,0.37,2.46,0.48,3.88-0.54
	C101.11,242.9,105.3,234.98,96.46,237.65z M88.18,235.22c4.52,4.43,3.03,4.05,4.18,6.6c0.71,1.58,2.31,2.99,4.28,3.78
	c1.14,0.46,2.41,0.66,3.91-0.25C92.42,240.8,97.19,233.21,88.18,235.22z M80.1,232.19c4.18,4.75,2.72,4.27,3.68,6.89
	c0.6,1.63,2.08,3.15,3.99,4.09c1.1,0.54,2.36,0.84,3.92,0.04C83.92,238.06,89.24,230.85,80.1,232.19z M72.27,228.56
	c3.81,5.05,2.4,4.46,3.16,7.15c0.47,1.67,1.84,3.3,3.68,4.37c1.06,0.62,2.29,1.01,3.91,0.33C75.65,234.7,81.48,227.91,72.27,228.56z
	 M64.73,224.36c3.43,5.32,2.06,4.62,2.62,7.36c0.35,1.7,1.59,3.43,3.34,4.63c1.01,0.7,2.21,1.18,3.87,0.62
	C67.64,230.74,73.97,224.39,64.73,224.36z M57.52,219.62c3.03,5.56,1.71,4.76,2.07,7.54c0.22,1.73,1.33,3.54,2.99,4.87
	c0.95,0.77,2.11,1.34,3.81,0.9C59.95,226.19,66.73,220.33,57.52,219.62z M50.69,214.35c2.61,5.77,1.35,4.88,1.5,7.67
	c0.09,1.74,1.07,3.63,2.62,5.08c0.89,0.84,2.01,1.49,3.74,1.18C52.62,221.09,59.82,215.75,50.69,214.35z M44.26,208.59
	c2.17,5.94,0.99,4.96,0.93,7.76c-0.04,1.74,0.8,3.69,2.24,5.26c0.83,0.9,1.89,1.64,3.64,1.46
	C45.69,215.46,53.26,210.66,44.26,208.59z M38.28,202.37c1.72,6.09,0.62,5.02,0.35,7.81c-0.17,1.73,0.52,3.74,1.84,5.41
	c0.76,0.96,1.76,1.77,3.52,1.72C39.2,209.32,47.1,205.1,38.28,202.37z M32.78,195.72c1.27,6.2,0.24,5.06-0.23,7.81
	c-0.29,1.71,0.24,3.77,1.43,5.53c0.69,1.01,1.63,1.9,3.38,1.98C33.18,202.73,41.37,199.1,32.78,195.72z M27.78,188.69
	c0.8,6.28-0.13,5.06-0.81,7.77c-0.42,1.69-0.04,3.78,1.02,5.62c0.61,1.06,1.48,2.02,3.23,2.23C27.66,195.7,36.1,192.7,27.78,188.69z
	 M23.32,181.3c0.34,6.32-0.51,5.04-1.38,7.69c-0.54,1.65-0.32,3.76,0.6,5.68c0.53,1.11,1.33,2.12,3.05,2.46
	C22.68,188.28,31.32,185.91,23.32,181.3z M19.42,173.6c-0.13,6.33-0.88,4.98-1.95,7.57c-0.67,1.61-0.6,3.73,0.18,5.71
	c0.45,1.14,1.17,2.21,2.86,2.68C18.27,180.52,27.06,178.8,19.42,173.6z M16.11,165.64c-0.6,6.3-1.25,4.91-2.51,7.4
	c-0.78,1.55-0.87,3.68-0.25,5.71c0.36,1.17,1,2.29,2.65,2.88C14.44,172.45,23.33,171.38,16.11,165.64z M13.39,157.45
	c-1.07,6.24-1.61,4.8-3.05,7.2c-0.9,1.49-1.14,3.6-0.67,5.67c0.27,1.19,0.83,2.36,2.43,3.07C11.22,164.11,20.17,163.71,13.39,157.45
	z M11.28,149.08c-1.53,6.14-1.96,4.67-3.57,6.95c-1,1.42-1.41,3.51-1.09,5.61c0.18,1.21,0.65,2.42,2.2,3.24
	C8.63,155.57,17.58,155.83,11.28,149.08z M9.81,140.57c-1.98,6.01-2.3,4.51-4.08,6.67c-1.11,1.34-1.66,3.39-1.5,5.51
	c0.09,1.22,0.47,2.46,1.95,3.4C6.68,146.85,15.59,147.78,9.81,140.57z M8.97,131.99c-2.42,5.85-2.63,4.33-4.56,6.34
	c-1.2,1.26-1.91,3.26-1.91,5.39c0,1.23,0.29,2.49,1.7,3.53C5.38,138.01,14.2,139.6,8.97,131.99z M8.77,123.36
	c-2.85,5.65-2.94,4.12-5.02,5.99c-1.29,1.16-2.15,3.11-2.3,5.23c-0.09,1.22,0.1,2.5,1.43,3.65C4.74,129.1,13.42,131.34,8.77,123.36z
	 M9.2,114.74c-3.26,5.43-3.24,3.89-5.45,5.6c-1.38,1.06-2.37,2.94-2.68,5.04c-0.18,1.21-0.08,2.5,1.15,3.75
	C4.76,120.17,13.25,123.04,9.2,114.74z M10.28,106.18c-3.65,5.17-3.52,3.64-5.85,5.18c-1.45,0.96-2.58,2.76-3.05,4.83
	c-0.27,1.2-0.27,2.49,0.87,3.82C5.45,111.26,13.7,114.76,10.28,106.18z M11.99,97.72c-4.02,4.88-3.78,3.37-6.22,4.73
	c-1.52,0.85-2.78,2.56-3.4,4.59c-0.36,1.17-0.45,2.46,0.59,3.88C6.79,102.43,14.76,106.53,11.99,97.72z M14.32,89.41
	c-4.37,4.57-4.02,3.08-6.55,4.26c-1.58,0.73-2.96,2.34-3.73,4.33c-0.44,1.14-0.64,2.42,0.3,3.91C8.79,93.72,16.43,98.4,14.32,89.41z
	 M17.26,81.3c-4.7,4.23-4.24,2.77-6.85,3.76c-1.63,0.61-3.13,2.12-4.04,4.04c-0.53,1.11-0.81,2.37,0.01,3.92
	C11.43,85.19,18.7,90.42,17.26,81.3z M20.8,73.42c-5,3.87-4.43,2.45-7.11,3.24c-1.67,0.49-3.28,1.88-4.33,3.73
	c-0.61,1.06-0.99,2.3-0.28,3.91C14.69,76.87,21.56,82.63,20.8,73.42z M24.9,65.83c-5.28,3.49-4.6,2.12-7.33,2.71
	c-1.7,0.37-3.41,1.63-4.6,3.4c-0.68,1.02-1.15,2.22-0.57,3.88C18.56,68.82,24.98,75.07,24.9,65.83z M29.56,58.57
	c-5.52,3.09-4.74,1.77-7.51,2.15c-1.72,0.24-3.52,1.37-4.83,3.05c-0.76,0.96-1.32,2.13-0.86,3.82
	C23.02,61.08,28.96,67.78,29.56,58.57z M34.75,51.67c-5.74,2.67-4.86,1.41-7.65,1.59c-1.73,0.11-3.61,1.11-5.05,2.68
	c-0.83,0.9-1.47,2.03-1.14,3.75C28.03,53.68,33.46,60.82,34.75,51.67z M40.44,45.18c-5.92,2.24-4.95,1.05-7.75,1.02
	c-1.74-0.02-3.68,0.84-5.23,2.3c-0.89,0.84-1.62,1.91-1.41,3.66C33.59,46.69,38.47,54.2,40.44,45.18z M46.14,39.53
	c-6.06,1.83-5.01,0.7-7.8,0.48c-1.73-0.14-3.73,0.58-5.38,1.93c-0.95,0.78-1.74,1.8-1.66,3.55C39.21,40.56,43.56,48.4,46.14,39.53z
	 M65.32,25.18c-6.3,0.55-5.05-0.34-7.73-1.13c-1.67-0.49-3.77-0.2-5.66,0.79c-1.09,0.57-2.08,1.4-2.36,3.13
	C58.35,24.76,61.12,33.05,65.32,25.18z M58.62,29.51c-6.25,0.98-5.06,0.01-7.79-0.59c-1.7-0.37-3.78,0.06-5.59,1.17
	c-1.05,0.64-1.97,1.54-2.14,3.29C51.61,29.58,54.84,37.93,58.62,29.51z M52.14,34.36c-6.17,1.41-5.05,0.36-7.81-0.05
	c-1.72-0.25-3.77,0.33-5.5,1.56c-1,0.71-1.86,1.67-1.9,3.43C45.15,34.92,48.96,43.03,52.14,34.36z M181.31,174.75l-13.22-32.24h2.96
	l16.07,39.42h-56.85c0.57-0.57-0.46-1.37-0.46-1.37c20.17-8.09,31.9,1.71,55.6-0.23l-1.48-1.25L181.31,174.75 M68.97,174.41
	l-2.85,4.67l-1.48,1.25c23.7,1.94,35.43-7.86,55.6,0.23c0,0-1.03,0.8-0.46,1.37H62.93l16.07-39.42h2.96L68.97,174.41 M51.3,115.45
	c0.31-0.88,0.48-1.43,0.63-1.98c0.36-1.35-0.23-1.54-0.72-1.54c-0.69,0-1.11,0.22-1.39,0.22c-0.21,0-0.38-0.22-0.29-0.55
	c0.18-0.66,0.71-0.91,1.08-0.99c4.53-0.91,4.86-2.92,6.07-2.92c0.15,0,0.26,0.18,0.15,0.59c-0.09,0.33-0.45,1.32-1.32,3.81
	l-4.3,12.36c-0.47,1.39-1.22,3.51-1.34,3.95c-1.11,4.17,2.58,1.8,2.13,3.48c-0.11,0.4-0.32,0.73-0.84,0.73
	c-0.82,0-2.81-0.15-3.73-0.15c-1.59,0-3.14,0.14-3.84,0.14c-0.59,0-0.57-0.18-0.46-0.59c0.49-1.83,2.25,0.41,3.52-3.18L51.3,115.45z
	 M66.94,107.72c-3.77,0-7.45,4.05-8.88,9.43c-1.03,3.88,0.11,6.92,2.8,6.92c1.54,0,2.49-0.47,4.1-1.53
	c-0.69,1.72-3.97,7.97-10.8,9.03c-0.32,0.04-0.53,0.26-0.62,0.58c-0.1,0.37,0.06,0.73,0.5,0.73c6.42,0.01,13.99-5.4,16.7-15.57
	C72.73,109.89,69.54,107.72,66.94,107.72z M67.83,116.54c-0.76,2.85-2.54,5.38-4.69,5.37c-2.49,0-2.15-3.95-1.37-6.88
	c0.73-2.74,2.27-6.11,4.6-6.11C68.91,108.93,68.62,113.58,67.83,116.54z M82.31,107.74c-5.9-0.01-10.21,9.32-11.86,15.5
	c-1.22,4.57-0.78,9.66,2.81,9.66c4.98,0.01,9.99-8.99,11.65-15.21C86.22,112.83,86.16,107.74,82.31,107.74z M81.22,119.34
	c-1.77,6.66-3.71,11.82-6.48,11.81c-2.95,0-1.35-6.7-0.54-9.73c3.07-11.52,5.81-12.18,6.74-12.18
	C83.12,109.24,82.96,112.82,81.22,119.34z M101.35,107.76c-6.42-0.01-13.99,5.4-16.7,15.57c-1.98,7.43,1.22,9.59,3.81,9.59
	c3.77,0,7.45-4.05,8.88-9.43c1.03-3.88-0.11-6.92-2.8-6.92c-1.54,0-2.49,0.47-4.1,1.53c0.69-1.72,3.97-7.97,10.8-9.03
	c0.32-0.04,0.53-0.26,0.62-0.58C101.95,108.12,101.79,107.76,101.35,107.76z M92.29,118.65c2.49,0,2.15,3.96,1.37,6.88
	c-0.73,2.74-2.27,6.11-4.6,6.11c-2.54,0-2.25-4.65-1.46-7.61C88.35,121.17,90.13,118.65,92.29,118.65z"/>
<path fill="#004B8D" d="M103.15,190.26c-0.09-0.31-0.25-0.9-1.16-0.9c-0.52,0-1.3,0.35-1.3,1.83c0,0.94,0.37,1.79,1.3,1.79
	c0.61,0,1.03-0.34,1.16-0.98h1.09c-0.22,1.14-0.96,1.93-2.28,1.93c-1.39,0-2.39-0.94-2.39-2.75c0-1.83,1.06-2.76,2.41-2.76
	c1.57,0,2.2,1.08,2.26,1.85H103.15z M107.82,188.4c-0.69,0-2.52,0.3-2.52,2.76c0,2.46,1.82,2.76,2.52,2.76
	c0.69,0,2.52-0.3,2.52-2.76C110.34,188.7,108.51,188.4,107.82,188.4 M107.82,192.99c-0.59,0-1.42-0.36-1.42-1.83
	s0.83-1.83,1.42-1.83c0.59,0,1.42,0.36,1.42,1.83S108.41,192.99,107.82,192.99 M112.76,188.54h-1.09v5.24h3.7v-0.95h-2.6V188.54z
	 M117.67,188.54h-1.09v5.24h3.7v-0.95h-2.6V188.54z M125.35,188.54h-3.85v5.24h3.98v-0.93h-2.9v-1.36h2.55v-0.93h-2.55v-1.1h2.78
	V188.54z M129.27,191.84h1.22c-0.23,1.06-1.03,1.15-1.27,1.15c-0.74,0-1.52-0.37-1.52-1.8c0-1.34,0.72-1.88,1.5-1.88
	c0.77,0,1.14,0.66,1.14,0.86h1.09c-0.06-0.72-0.69-1.76-2.3-1.76c-1.76-0.01-2.56,1.34-2.56,2.77c0,1.84,1.14,2.74,2.41,2.74
	c0.96,0,1.36-0.47,1.63-0.8l0.11,0.66h0.73v-2.82h-2.19V191.84z M136.8,188.54h-3.85v5.24h3.98v-0.93h-2.9v-1.36h2.55v-0.93h-2.55
	v-1.1h2.78V188.54z M143.04,188.4c-0.69,0-2.52,0.3-2.52,2.76c0,2.46,1.82,2.76,2.52,2.76c0.69,0,2.52-0.3,2.52-2.76
	C145.56,188.7,143.73,188.4,143.04,188.4 M143.04,192.99c-0.59,0-1.42-0.36-1.42-1.83s0.83-1.83,1.42-1.83
	c0.59,0,1.42,0.36,1.42,1.83S143.63,192.99,143.04,192.99 M147.98,191.58h2.31v-0.93h-2.31v-1.18h2.63v-0.93h-3.73v5.24h1.09V191.58
	z M100.01,198.13h1.58v-0.93h-4.26v0.93h1.58v4.31h1.09V198.13z M106.55,197.2h-3.85v5.24h3.98v-0.93h-2.9v-1.36h2.55v-0.93h-2.55
	v-1.1h2.78V197.2z M112.46,198.91c-0.06-0.77-0.69-1.85-2.26-1.85c-1.35,0-2.41,0.93-2.41,2.76c0,1.81,1,2.75,2.39,2.75
	c1.31,0,2.06-0.8,2.28-1.93h-1.09c-0.13,0.64-0.55,0.98-1.16,0.98c-0.93,0-1.3-0.85-1.3-1.79c0-1.48,0.77-1.83,1.3-1.83
	c0.91,0,1.07,0.59,1.16,0.9H112.46z M116.85,200.09v2.35h1.09v-5.24h-1.09v1.98h-2.04v-1.98h-1.09v5.24h1.09v-2.35H116.85z
	 M122.67,200.85h-0.01l-2.08-3.65h-1.15v5.24h1.02v-3.73h0.01l2.14,3.73h1.09v-5.24h-1.02V200.85z M127.48,197.06
	c-0.69,0-2.52,0.3-2.52,2.76c0,2.46,1.82,2.76,2.52,2.76c0.69,0,2.52-0.3,2.52-2.76C129.99,197.36,128.17,197.06,127.48,197.06
	 M127.48,201.65c-0.59,0-1.42-0.36-1.42-1.83s0.83-1.83,1.42-1.83c0.59,0,1.42,0.36,1.42,1.83S128.07,201.65,127.48,201.65
	 M132.42,197.2h-1.09v5.24h3.7v-0.95h-2.6V197.2z M138.52,197.06c-0.69,0-2.52,0.3-2.52,2.76c0,2.46,1.82,2.76,2.52,2.76
	c0.69,0,2.52-0.3,2.52-2.76C141.04,197.36,139.22,197.06,138.52,197.06 M138.52,201.65c-0.59,0-1.42-0.36-1.42-1.83
	s0.83-1.83,1.42-1.83c0.59,0,1.42,0.36,1.42,1.83S139.11,201.65,138.52,201.65 M144.83,200.5h1.22c-0.23,1.06-1.03,1.15-1.27,1.15
	c-0.74,0-1.52-0.37-1.52-1.8c0-1.34,0.72-1.88,1.5-1.88c0.77,0,1.14,0.66,1.14,0.86H147c-0.06-0.72-0.69-1.76-2.3-1.76
	c-1.76-0.01-2.56,1.34-2.56,2.77c0,1.84,1.14,2.74,2.41,2.74c0.96,0,1.36-0.47,1.63-0.8l0.11,0.66h0.73v-2.82h-2.19V200.5z
	 M150.96,200.48l1.75-3.28h-1.24l-1.04,2.28l-1.09-2.28h-1.29l1.81,3.26v1.98h1.09V200.48z M108.36,233.38l0.15-1.15
	c-0.77-0.13-1.31-0.32-1.6-0.58c-0.5-0.44-0.68-1.18-0.54-2.24l1.06-8.34l8.72,13.51l1.36,0.17l1.48-11.68
	c0.14-1.14,0.39-1.9,0.74-2.3c0.35-0.4,1.02-0.58,2-0.54l0.13-1.06l-6.19-0.78l-0.14,1.08c0.77,0.14,1.3,0.33,1.59,0.57
	c0.48,0.41,0.66,1.08,0.54,2.03l-0.84,6.63l-7.17-11.07l-5.51-0.7L104,218c0.38,0.1,0.64,0.17,0.78,0.21
	c0.14,0.04,0.27,0.11,0.42,0.21c0.23,0.14,0.46,0.35,0.68,0.61c0.22,0.26,0.32,0.42,0.32,0.48l-1.14,8.97
	c-0.17,1.32-0.41,2.17-0.74,2.55c-0.32,0.38-1.01,0.52-2.06,0.41l-0.15,1.15L108.36,233.38z M88.7,222.17l3.95-4.37l0.23,5.85
	L88.7,222.17z M83.81,224.89c-0.5,0.23-1.1,0.28-1.8,0.15l-0.4,1.14l5.91,2.1l0.4-1.14c-0.6-0.27-1.01-0.51-1.23-0.72
	c-0.4-0.38-0.5-0.85-0.31-1.39c0.08-0.22,0.21-0.46,0.39-0.7c0.1-0.15,0.21-0.29,0.35-0.43l0.58-0.63l5.25,1.87l0.11,2.84
	c0,0.05,0,0.11,0,0.16c-0.01,0.05-0.02,0.1-0.04,0.15c-0.1,0.28-0.33,0.41-0.68,0.37c-0.21-0.02-0.58-0.13-1.12-0.33l-0.4,1.14
	l7.19,2.56l0.39-1.1c-0.59-0.24-0.97-0.47-1.15-0.69c-0.18-0.22-0.28-0.66-0.32-1.3l-0.81-14.64l-1.55-0.55l-8.68,9.38
	C85,224.06,84.31,224.66,83.81,224.89 M78.59,206.12c-1.91-1.11-3.91-1.41-6-0.9c-2.27,0.55-4.07,1.96-5.39,4.24
	c-1.09,1.87-1.4,3.81-0.94,5.82c0.48,2.13,1.74,3.79,3.77,4.97c1.63,0.94,3.19,1.29,4.7,1.05c1.51-0.25,2.96-1.08,4.35-2.5
	l-0.96-0.92c-0.78,0.84-1.55,1.45-2.33,1.82c-1.45,0.7-2.88,0.63-4.3-0.19c-1.43-0.83-2.12-1.95-2.04-3.34
	c0.07-1.39,0.63-2.98,1.66-4.77c1.08-1.85,2.2-3.21,3.37-4.06c1.17-0.85,2.47-0.86,3.9-0.03c1.25,0.73,1.92,1.97,2.02,3.73
	c0.06,1.05-0.09,2.17-0.43,3.35l1.01,0.47l2.98-5.53l-0.78-0.46l-1.7,0.4c-0.29-0.72-0.69-1.33-1.19-1.84
	C79.79,206.93,79.23,206.49,78.59,206.12 M173.8,223.21l-0.54-1.03c-0.71,0.34-1.25,0.48-1.64,0.44c-0.66-0.07-1.23-0.58-1.73-1.53
	l-3.89-7.45l14.87,6.11l1.21-0.63l-5.45-10.43c-0.53-1.02-0.77-1.79-0.7-2.31c0.06-0.53,0.51-1.05,1.33-1.58l-0.5-0.95l-5.53,2.89
	l0.5,0.97c0.71-0.33,1.26-0.47,1.63-0.44c0.63,0.06,1.16,0.51,1.6,1.36l3.1,5.93l-12.21-5l-4.92,2.57l0.5,0.97
	c0.37-0.14,0.62-0.23,0.76-0.27c0.13-0.04,0.29-0.06,0.46-0.07c0.27-0.01,0.57,0.02,0.9,0.11c0.33,0.09,0.51,0.16,0.53,0.21
	l4.19,8.01c0.62,1.18,0.9,2.02,0.85,2.51c-0.05,0.5-0.54,1-1.46,1.51l0.54,1.03L173.8,223.21z M148.82,219.74
	c0.06-2.02,0.91-3.27,2.57-3.75c1.38-0.39,2.52-0.02,3.43,1.14c0.91,1.15,1.65,2.71,2.21,4.67c0.65,2.26,0.86,4.05,0.62,5.37
	c-0.23,1.32-0.98,2.17-2.25,2.53c-1.53,0.44-2.76,0.05-3.7-1.18c-0.94-1.23-1.66-2.69-2.15-4.41
	C149.03,222.29,148.79,220.84,148.82,219.74 M149.02,229.98c1.97,1.22,4.11,1.5,6.44,0.83c2.48-0.71,4.23-2.16,5.26-4.33
	c0.91-1.94,1.07-3.91,0.49-5.93c-0.57-1.98-1.73-3.55-3.47-4.7c-2.02-1.33-4.29-1.63-6.81-0.91c-2.12,0.61-3.74,1.87-4.85,3.78
	c-1.15,1.99-1.4,4.11-0.75,6.35C145.95,227.21,147.18,228.85,149.02,229.98 M127.31,224.89c0.15-1.29,0.38-2.29,0.69-3.02
	c0.56-1.33,1.42-2.04,2.57-2.14c0.38-0.03,0.63,0,0.73,0.11c0.11,0.11,0.17,0.27,0.19,0.5l1.02,11.76c0.03,0.36-0.03,0.62-0.17,0.8
	c-0.14,0.18-0.36,0.29-0.66,0.33l-1.56,0.19l0.1,1.13l8.81-0.76l-0.1-1.16c-1.19,0.1-1.9,0.12-2.14,0.06
	c-0.24-0.07-0.38-0.33-0.42-0.8l-0.99-11.45c-0.04-0.43-0.02-0.72,0.05-0.88c0.07-0.16,0.29-0.26,0.66-0.29
	c1.21-0.1,2.23,0.51,3.08,1.85c0.52,0.83,0.88,1.72,1.09,2.66l1.09-0.09l-0.84-5.88l-14.4,1.24l0.15,5.94L127.31,224.89z
	 M132.48,22.14c0.39-1.12,0.79-1.97,1.21-2.56c0.77-1.08,1.67-1.55,2.72-1.41c0.35,0.05,0.56,0.13,0.63,0.24
	c0.07,0.12,0.1,0.28,0.07,0.48l-1.4,10.72c-0.04,0.32-0.14,0.55-0.31,0.69c-0.16,0.13-0.38,0.19-0.65,0.17l-1.43-0.14l-0.13,1.03
	l8.03,1.05l0.14-1.06c-1.08-0.14-1.72-0.26-1.92-0.37c-0.2-0.11-0.28-0.37-0.22-0.8l1.36-10.44c0.05-0.39,0.12-0.65,0.21-0.78
	c0.09-0.13,0.31-0.17,0.64-0.13c1.1,0.14,1.9,0.9,2.39,2.25c0.3,0.85,0.45,1.71,0.45,2.59l0.99,0.13l0.4-5.42l-13.12-1.71
	l-1.03,5.34L132.48,22.14z M148.37,19.95c0.46,0.16,0.79,0.33,0.97,0.49c0.19,0.16,0.35,0.51,0.49,1.04l1.95,7.11l-1.18,3.96
	c-0.12,0.41-0.31,0.63-0.55,0.65c-0.24,0.02-0.85-0.11-1.82-0.4l-0.3,1.02l7.69,2.28l0.3-1.02c-0.98-0.29-1.57-0.51-1.78-0.65
	c-0.21-0.14-0.25-0.41-0.14-0.81l1.27-4.27c2.11-2.03,3.25-3.12,3.42-3.28c1.03-0.93,1.77-1.49,2.21-1.69
	c0.44-0.2,1.05-0.26,1.83-0.17l0.3-1l-5.63-1.67l-0.3,1c0.57,0.21,0.96,0.4,1.17,0.56c0.35,0.28,0.47,0.61,0.35,1.01
	c-0.03,0.09-0.08,0.19-0.14,0.29c-0.07,0.1-0.18,0.23-0.33,0.38l-3.01,2.98l-1.41-5.36c-0.03-0.08-0.04-0.14-0.05-0.21
	c-0.01-0.06,0-0.12,0.02-0.18c0.03-0.11,0.1-0.19,0.2-0.23c0.1-0.04,0.21-0.05,0.34-0.03c0.11,0.01,0.21,0.03,0.3,0.05
	c0.09,0.02,0.33,0.08,0.74,0.19l0.3-1l-6.93-2.06L148.37,19.95 M176.94,33.68c1.4-1.22,2.77-1.42,4.12-0.59
	c1.12,0.68,1.57,1.69,1.36,3.02c-0.21,1.33-0.8,2.79-1.77,4.39c-1.12,1.84-2.2,3.09-3.24,3.75c-1.04,0.66-2.07,0.68-3.1,0.05
	c-1.24-0.76-1.74-1.83-1.5-3.23c0.24-1.39,0.79-2.79,1.64-4.18C175.35,35.41,176.18,34.34,176.94,33.68 M170.16,40.17
	c0.4,2.08,1.54,3.7,3.44,4.85c2.02,1.23,4.08,1.51,6.18,0.86c1.87-0.59,3.31-1.7,4.31-3.35c0.98-1.62,1.32-3.37,1.01-5.26
	c-0.36-2.19-1.56-3.91-3.61-5.15c-1.73-1.05-3.58-1.36-5.56-0.92c-2.05,0.46-3.64,1.6-4.75,3.43
	C170.12,36.38,169.78,38.22,170.16,40.17 M186.27,53.83l0.69-0.82L185.8,52c-0.27-0.24-0.39-0.46-0.36-0.67
	c0.03-0.21,0.16-0.46,0.4-0.75l3.01-3.59l0.37,0.31c0.77,0.64,1.06,1.45,0.86,2.4c-0.1,0.5-0.36,1.06-0.77,1.69l0.78,0.65l4.45-5.31
	l-0.78-0.65c-0.94,0.65-1.67,1.01-2.19,1.07c-0.52,0.07-1.2-0.26-2.03-0.99l2.8-3.34c0.27-0.32,0.54-0.46,0.8-0.41
	c0.27,0.05,0.61,0.24,1.02,0.59c0.96,0.8,1.57,1.54,1.86,2.23c0.51,1.23,0.32,2.66-0.56,4.29l0.77,0.64l3.27-4.12l-10.15-8.5
	l-0.68,0.82l0.87,0.76c0.28,0.24,0.43,0.46,0.44,0.65c0.01,0.19-0.08,0.4-0.29,0.65l-6.62,7.9c-0.27,0.33-0.49,0.51-0.66,0.55
	s-0.41-0.06-0.72-0.3l-0.96-0.77l-0.68,0.82L186.27,53.83z M199.74,68.18l0.87-0.62c-0.4-0.6-0.6-1.07-0.61-1.43
	c-0.02-0.61,0.37-1.19,1.16-1.77l6.25-4.51l-3.6,14.29l0.73,1.02l8.75-6.31c0.85-0.61,1.52-0.93,2.01-0.94
	c0.49-0.01,1.02,0.32,1.61,1l0.79-0.57l-3.34-4.64l-0.81,0.58c0.39,0.6,0.59,1.08,0.61,1.42c0.03,0.57-0.31,1.12-1.02,1.63
	l-4.97,3.58l2.94-11.72l-2.98-4.13l-0.81,0.58c0.17,0.32,0.29,0.53,0.34,0.65c0.06,0.12,0.1,0.25,0.12,0.41
	c0.05,0.25,0.05,0.52,0.02,0.83c-0.04,0.31-0.08,0.48-0.12,0.51l-6.71,4.84c-0.99,0.71-1.71,1.08-2.17,1.1
	c-0.46,0.02-0.98-0.35-1.56-1.12l-0.86,0.62L199.74,68.18z M211.76,88.73l4.85-2.17l-0.39-0.92c-1.49,0.22-2.58,0.24-3.28,0.06
	c-1.16-0.31-2.1-1.18-2.82-2.61c-0.43-0.85-0.63-1.42-0.62-1.7c0.02-0.28,0.26-0.54,0.74-0.78l4.15-2.08
	c0.39,0.77,0.52,1.51,0.41,2.23c-0.12,0.72-0.69,1.39-1.72,2.02l0.46,0.87l6.22-3.12l-0.46-0.91c-0.76,0.24-1.38,0.33-1.86,0.27
	c-0.85-0.1-1.49-0.6-1.94-1.5c-0.02-0.05-0.04-0.09-0.06-0.14c-0.02-0.05-0.05-0.12-0.09-0.21l3.59-1.8
	c0.53-0.26,0.93-0.32,1.21-0.16c0.28,0.16,0.61,0.6,0.96,1.31c0.55,1.09,0.76,2.13,0.63,3.12c-0.13,0.99-0.85,2.05-2.18,3.17
	l0.47,0.88l4.6-2.48l-6.02-12.01l-0.95,0.48c0.42,0.88,0.65,1.44,0.68,1.66c0.03,0.22-0.11,0.42-0.42,0.57l-9.47,4.75
	c-0.43,0.21-0.73,0.23-0.92,0.06c-0.19-0.17-0.49-0.68-0.89-1.52l-0.95,0.48L211.76,88.73z M224.83,84.64l0.1,0.43
	c0.07,0.29,0.06,0.52-0.04,0.69c-0.09,0.17-0.34,0.4-0.75,0.69l-10.77,7.57l0.42,1.39l8.75,0.17l-7.24,4.83l0.42,1.38l12.06,0.13
	c0.85,0.01,1.5,0.15,1.94,0.44c0.25,0.16,0.5,0.44,0.73,0.84l1.02-0.31l-1.45-4.79l-1.02,0.31c0.14,0.56,0.17,1.02,0.1,1.37
	c-0.07,0.35-0.33,0.59-0.78,0.72c-0.13,0.04-0.28,0.07-0.44,0.09c-0.28,0.03-0.65,0.05-1.11,0.05l-5.86,0l6.24-4.17l0.22-0.14
	c0.1-0.07,0.19-0.11,0.25-0.14c0.06-0.03,0.12-0.05,0.17-0.06c0.16-0.05,0.29,0,0.41,0.14c0.12,0.14,0.25,0.43,0.42,0.87l1.02-0.31
	l-1.72-5.68l-1.02,0.31l0.09,0.52c0.02,0.2-0.01,0.36-0.09,0.49c-0.08,0.13-0.28,0.31-0.62,0.55l-1.98,1.4l-5.46-0.1l6.54-4.56
	c0.08-0.05,0.15-0.1,0.22-0.14c0.07-0.04,0.13-0.07,0.18-0.08c0.19-0.06,0.34-0.02,0.43,0.1c0.09,0.13,0.23,0.43,0.41,0.91
	l1.02-0.31l-1.78-5.89L224.83,84.64z M232.03,114.73c-0.01,0.49-0.07,0.85-0.17,1.08c-0.1,0.23-0.38,0.49-0.83,0.79l-6.16,4.06
	l-4.13,0.11c-0.43,0.01-0.69-0.1-0.79-0.32c-0.1-0.23-0.16-0.84-0.19-1.85l-1.07,0.03l0.21,8.02l1.07-0.03
	c-0.03-1.02,0-1.65,0.07-1.89c0.07-0.24,0.31-0.37,0.72-0.38l4.45-0.12c2.58,1.37,3.97,2.12,4.18,2.24c1.2,0.69,1.96,1.22,2.29,1.57
	c0.33,0.36,0.57,0.92,0.73,1.68l1.05-0.03l-0.15-5.87l-1.05,0.03c-0.02,0.61-0.08,1.04-0.17,1.29c-0.15,0.42-0.44,0.64-0.85,0.65
	c-0.1,0-0.21-0.01-0.32-0.05c-0.12-0.03-0.27-0.1-0.47-0.2l-3.76-1.94l4.66-3c0.06-0.05,0.12-0.08,0.18-0.11
	c0.06-0.03,0.12-0.04,0.18-0.04c0.12,0,0.21,0.04,0.28,0.12c0.07,0.08,0.11,0.18,0.14,0.31c0.02,0.11,0.04,0.21,0.05,0.3
	c0.01,0.09,0.03,0.34,0.05,0.77l1.05-0.03l-0.19-7.22L232.03,114.73 M105.98,33.09l0.87-0.13l1.06-1.42
	c0.63,0.38,1.32,0.63,2.06,0.75c0.74,0.12,1.5,0.12,2.28,0c1.5-0.22,2.67-0.84,3.5-1.87s1.15-2.21,0.95-3.55
	c-0.23-1.59-1.01-2.7-2.32-3.32c-0.81-0.39-2.05-0.64-3.72-0.74l-1.78-0.12c-0.62-0.04-1.1-0.14-1.44-0.28
	c-0.63-0.27-0.99-0.74-1.09-1.4c-0.09-0.63,0.1-1.16,0.57-1.61c0.47-0.45,1.09-0.73,1.84-0.84c0.96-0.14,1.93,0.06,2.91,0.61
	c0.99,0.54,1.87,1.54,2.66,2.99l0.98-0.16l-1.02-5.17l-0.85,0.12l-0.93,1.13c-0.55-0.26-1.02-0.43-1.41-0.51
	c-0.7-0.16-1.45-0.18-2.26-0.06c-1.54,0.23-2.73,0.82-3.58,1.77c-0.85,0.96-1.17,2.11-0.98,3.46c0.23,1.6,1.14,2.72,2.73,3.37
	c0.85,0.35,1.97,0.55,3.37,0.61l1.46,0.06c0.77,0.04,1.32,0.14,1.64,0.29c0.59,0.3,0.94,0.81,1.05,1.53
	c0.1,0.69-0.09,1.28-0.58,1.77c-0.49,0.49-1.11,0.79-1.88,0.9c-1.35,0.2-2.53-0.09-3.54-0.88c-1.01-0.78-1.87-1.81-2.59-3.07
	l-0.95,0.17L105.98,33.09z M89.67,23.81c0.15-0.18,0.54-0.37,1.19-0.58c0.89-0.29,1.64-0.36,2.24-0.2c0.6,0.16,1.07,0.68,1.41,1.55
	c0.43,1.29,0.3,2.25-0.37,2.87c-0.44,0.41-1.48,0.88-3.14,1.43l-1.38-4.16C89.51,24.29,89.52,23.99,89.67,23.81 M83.58,24.56
	l0.34,1.01l1.24-0.38c0.37-0.12,0.62-0.1,0.75,0.06c0.13,0.15,0.31,0.55,0.52,1.2l2.93,8.85l0.13,0.49
	c0.11,0.41,0.08,0.69-0.09,0.83c-0.17,0.14-0.71,0.36-1.61,0.66l0.34,1.01l7.49-2.48l-0.34-1.01l-0.91,0.27
	c-0.57,0.18-0.92,0.24-1.07,0.17c-0.15-0.06-0.29-0.31-0.43-0.74l-1.53-4.61l1.21-0.4c0.86-0.28,1.51-0.26,1.93,0.07
	c0.43,0.33,0.82,0.92,1.17,1.77l0.63,1.54c0.33,0.8,0.83,1.36,1.5,1.67c0.67,0.31,1.48,0.3,2.42-0.01c0.85-0.28,1.51-0.77,1.98-1.46
	c0.47-0.69,0.5-1.68,0.08-2.95l-0.96,0.29c0.16,0.69,0.21,1.2,0.16,1.52c-0.05,0.33-0.2,0.53-0.45,0.61
	c-0.19,0.06-0.39-0.02-0.61-0.24c-0.14-0.15-0.33-0.42-0.58-0.82l-0.97-1.52c-0.49-0.77-1.15-1.27-1.98-1.51
	c-0.45-0.12-1.01-0.17-1.66-0.14c0.91-0.4,1.62-0.86,2.14-1.38c0.98-0.98,1.25-2.1,0.83-3.37c-0.26-0.79-0.72-1.4-1.36-1.82
	c-1.01-0.64-2.36-0.71-4.05-0.21l-1.44,0.43L83.58,24.56z M47.86,71.5L47,70.87c-0.44,0.57-0.83,0.91-1.17,1.03
	c-0.57,0.21-1.25,0.02-2.04-0.55l-6.23-4.53l14.7-1.04l0.74-1.01l-8.72-6.34c-0.85-0.62-1.36-1.16-1.52-1.61s-0.01-1.07,0.45-1.84
	l-0.79-0.58l-3.36,4.62l0.81,0.59c0.45-0.56,0.84-0.9,1.16-1.02c0.54-0.21,1.16-0.05,1.87,0.46l4.95,3.6l-12.05,0.86l-2.99,4.12
	l0.81,0.59c0.25-0.26,0.42-0.44,0.51-0.53c0.09-0.09,0.21-0.17,0.35-0.24c0.22-0.12,0.48-0.21,0.79-0.27
	c0.31-0.06,0.48-0.07,0.52-0.04l6.7,4.87c0.99,0.72,1.56,1.29,1.72,1.72c0.16,0.43-0.03,1.04-0.58,1.84l0.86,0.63L47.86,71.5z
	 M52.26,45.72c0.58-0.39,1-0.59,1.24-0.62c0.24-0.03,0.63,0.11,1.17,0.42l11.57,6.61l1.3-1.03l-3.32-11.57
	c-0.29-1-0.33-1.82-0.14-2.48c0.11-0.37,0.35-0.77,0.72-1.19L64.12,35l-4.6,3.63l0.66,0.84c0.46-0.31,0.83-0.51,1.12-0.59
	c0.53-0.14,0.95-0.01,1.27,0.39c0.04,0.06,0.11,0.17,0.2,0.35c0.09,0.18,0.25,0.63,0.48,1.35l1.93,6.6l-7.9-4.61
	c-0.08-0.05-0.14-0.09-0.19-0.12c-0.05-0.04-0.09-0.08-0.13-0.12c-0.1-0.13-0.14-0.24-0.11-0.32c0.03-0.09,0.08-0.18,0.15-0.27
	c0.04-0.04,0.19-0.18,0.43-0.41c0.25-0.23,0.42-0.38,0.5-0.46l-0.66-0.84l-5.68,4.48L52.26,45.72z M60.6,56.58l-0.76-0.75
	l-0.78,0.77c-0.28,0.28-0.5,0.43-0.67,0.47c-0.17,0.04-0.38-0.07-0.64-0.32l-7.46-7.28c-0.31-0.31-0.46-0.55-0.45-0.74
	c0.01-0.18,0.14-0.41,0.39-0.69l0.77-0.83l-0.76-0.75l-5.45,5.58l0.76,0.75l0.92-0.9c0.2-0.2,0.4-0.31,0.57-0.32
	c0.18-0.01,0.41,0.12,0.7,0.4l7.33,7.16c0.25,0.25,0.41,0.47,0.48,0.66c0.07,0.19-0.03,0.43-0.28,0.7l-0.88,0.93l0.76,0.75
	L60.6,56.58z M24.9,85.65l0.44-0.87c0.18-0.37,0.35-0.59,0.5-0.68c0.15-0.09,0.29-0.1,0.44-0.03l0.39,0.16l7.18,3.45
	c1.77,0.85,3.33,0.75,4.69-0.29c0.87-0.68,1.63-1.69,2.28-3.04c0.66-1.37,0.93-2.75,0.82-4.14c-0.11-1.39-1.05-2.53-2.84-3.42
	l-1.31-0.65l-3.74-1.8l-0.76-0.4c-0.77-0.41-1.21-0.85-1.32-1.34c-0.06-0.31,0.03-0.82,0.27-1.55l-0.94-0.45l-2.47,5.14l0.94,0.45
	c0.34-0.67,0.72-1.1,1.16-1.3c0.44-0.2,1.03-0.12,1.77,0.24l5.24,2.52c0.99,0.47,1.69,0.98,2.11,1.51c0.76,0.99,0.79,2.18,0.12,3.59
	c-0.66,1.38-1.52,2.1-2.56,2.14c-0.6,0.04-1.47-0.22-2.61-0.77l-6.45-3.1c-0.41-0.2-0.61-0.41-0.6-0.64
	c0.01-0.23,0.21-0.78,0.6-1.65l-0.94-0.45l-3.33,6.92L24.9,85.65z M33.33,104.11l-5.2-1.06l-0.22,0.98c1.34,0.69,2.24,1.31,2.7,1.86
	c0.76,0.93,1.02,2.18,0.77,3.76c-0.15,0.94-0.31,1.52-0.49,1.74c-0.18,0.22-0.53,0.29-1.06,0.2l-4.58-0.72
	c0.13-0.85,0.46-1.53,0.97-2.05c0.51-0.52,1.37-0.73,2.58-0.64l0.13-0.98l-6.87-1.08l-0.16,1c0.76,0.25,1.31,0.54,1.67,0.86
	c0.63,0.57,0.86,1.36,0.71,2.35c-0.01,0.05-0.02,0.1-0.03,0.15c-0.01,0.05-0.03,0.12-0.05,0.23l-3.96-0.63
	c-0.58-0.09-0.94-0.28-1.08-0.58c-0.14-0.29-0.15-0.83-0.02-1.63c0.19-1.2,0.63-2.17,1.3-2.9c0.68-0.73,1.89-1.17,3.62-1.31
	l0.14-0.99l-5.18-0.66l-2.09,13.26l1.05,0.17c0.17-0.96,0.31-1.55,0.41-1.75c0.1-0.2,0.33-0.27,0.68-0.22l10.46,1.65
	c0.47,0.07,0.73,0.24,0.78,0.48c0.05,0.25,0,0.83-0.16,1.75l1.05,0.17L33.33,104.11z M22.32,133.3c-1.17-0.22-2.07-0.49-2.72-0.81
	c-1.18-0.59-1.78-1.42-1.81-2.48c-0.01-0.35,0.04-0.57,0.14-0.66c0.1-0.09,0.26-0.14,0.47-0.14l10.81-0.24
	c0.33-0.01,0.57,0.06,0.72,0.2c0.16,0.14,0.24,0.35,0.26,0.62l0.08,1.44l1.04-0.02l-0.18-8.1l-1.07,0.02c0.02,1.09,0,1.74-0.07,1.96
	c-0.07,0.22-0.33,0.33-0.76,0.34l-10.53,0.23c-0.39,0.01-0.66-0.02-0.8-0.09c-0.14-0.07-0.22-0.28-0.22-0.62
	c-0.02-1.11,0.6-2.01,1.87-2.7c0.79-0.43,1.63-0.71,2.5-0.84l-0.02-1l-5.42,0.42l0.3,13.24l5.44,0.21L22.32,133.3z M229.53,135.01
	c1.68,0.78,2.43,1.95,2.23,3.51c-0.16,1.3-0.9,2.13-2.2,2.48c-1.3,0.35-2.88,0.41-4.73,0.18c-2.14-0.27-3.72-0.74-4.75-1.42
	c-1.03-0.68-1.47-1.61-1.32-2.81c0.18-1.44,0.96-2.34,2.33-2.69c1.37-0.35,2.87-0.42,4.49-0.22
	C227.3,134.27,228.61,134.59,229.53,135.01 M220.83,131.48c-1.74,1.21-2.74,2.92-3.02,5.12c-0.29,2.34,0.29,4.34,1.75,5.99
	c1.3,1.46,2.91,2.32,4.82,2.56c1.88,0.24,3.61-0.17,5.21-1.23c1.85-1.22,2.92-3.02,3.22-5.4c0.25-2.01-0.23-3.82-1.43-5.45
	c-1.26-1.68-2.95-2.66-5.08-2.93C224.28,129.89,222.45,130.34,220.83,131.48 M228.56,152.57c0.06,0.22,0,0.66-0.18,1.31
	c-0.26,0.9-0.62,1.56-1.1,1.97c-0.47,0.41-1.17,0.51-2.08,0.3c-1.31-0.37-2.03-1.01-2.17-1.92c-0.09-0.59,0.1-1.72,0.58-3.41
	l4.22,1.2C228.25,152.17,228.5,152.35,228.56,152.57 M231.36,147.11l-1.03-0.29l-0.38,1.24c-0.11,0.37-0.27,0.56-0.47,0.59
	c-0.2,0.02-0.63-0.06-1.29-0.24l-8.97-2.54l-0.48-0.17c-0.4-0.14-0.61-0.32-0.63-0.54c-0.02-0.22,0.1-0.79,0.36-1.7l-1.03-0.29
	l-2.15,7.59l1.03,0.29l0.29-0.9c0.17-0.57,0.32-0.9,0.46-0.98c0.14-0.09,0.42-0.07,0.85,0.05l4.67,1.32l-0.35,1.22
	c-0.25,0.87-0.63,1.39-1.14,1.56c-0.52,0.17-1.22,0.16-2.12-0.03l-1.63-0.34c-0.85-0.18-1.59-0.08-2.22,0.31
	c-0.63,0.38-1.08,1.05-1.35,2.01c-0.24,0.86-0.21,1.68,0.1,2.46c0.31,0.78,1.11,1.35,2.4,1.72l0.3-0.95
	c-0.66-0.25-1.11-0.5-1.35-0.72c-0.24-0.23-0.33-0.47-0.25-0.72c0.05-0.19,0.23-0.31,0.54-0.37c0.2-0.03,0.53-0.04,1-0.02l1.8,0.05
	c0.91,0.03,1.69-0.24,2.36-0.79c0.36-0.31,0.71-0.74,1.05-1.3c-0.18,0.97-0.2,1.82-0.06,2.55c0.26,1.35,1.03,2.21,2.32,2.58
	c0.8,0.23,1.56,0.19,2.27-0.11c1.1-0.48,1.91-1.55,2.44-3.23l0.46-1.44L231.36,147.11z M209.64,165.72l0.96,0.46l0.52-1.02
	c0.17-0.33,0.33-0.5,0.49-0.53c0.16-0.03,0.4,0.03,0.72,0.17l2.69,1.3l0.88,2.38l-5.8,0.52c-0.06,0.01-0.12,0-0.17-0.01
	c-0.05-0.01-0.1-0.03-0.15-0.05c-0.18-0.09-0.25-0.24-0.2-0.44c0.05-0.21,0.22-0.64,0.52-1.29l-0.96-0.46l-3.17,6.55l0.93,0.45
	l0.34-0.53c0.14-0.22,0.35-0.38,0.65-0.48c0.18-0.06,0.48-0.11,0.91-0.16l8.27-0.91l0.73,1.95l0.47,1.43
	c0.12,0.36,0.21,0.78,0.26,1.28c0.09,0.88-0.01,1.65-0.3,2.31l0.99,0.48l2.93-6.06l-0.99-0.48l-0.44,0.8
	c-0.17,0.31-0.34,0.53-0.5,0.65c-0.16,0.13-0.34,0.15-0.53,0.05c-0.17-0.08-0.35-0.29-0.53-0.64c-0.09-0.17-0.18-0.38-0.28-0.63
	l-2.27-5.97l5.09,2.46c0.39,0.19,0.57,0.4,0.55,0.64c-0.02,0.24-0.21,0.76-0.58,1.56l0.99,0.48l3.31-6.83l-0.96-0.46
	c-0.47,0.93-0.78,1.46-0.93,1.58c-0.15,0.13-0.42,0.09-0.82-0.1l-9.29-4.5c-0.46-0.22-0.68-0.45-0.66-0.69
	c0.02-0.23,0.22-0.79,0.62-1.66l-0.98-0.47L209.64,165.72z M85.8,39.46l-2.33-4.77l-0.91,0.42c0.27,1.48,0.32,2.57,0.16,3.27
	c-0.27,1.17-1.11,2.14-2.51,2.9c-0.84,0.46-1.4,0.68-1.68,0.67c-0.28-0.01-0.55-0.24-0.81-0.71l-2.22-4.08
	c0.76-0.41,1.5-0.57,2.22-0.48c0.72,0.09,1.41,0.64,2.08,1.66l0.86-0.49l-3.32-6.11l-0.89,0.49c0.26,0.76,0.37,1.37,0.33,1.85
	c-0.07,0.85-0.55,1.51-1.43,1.99c-0.05,0.03-0.09,0.05-0.14,0.07c-0.04,0.02-0.11,0.05-0.21,0.1l-1.92-3.53
	c-0.28-0.52-0.35-0.92-0.2-1.21c0.15-0.29,0.57-0.62,1.28-1.01c1.07-0.58,2.11-0.83,3.1-0.73c0.99,0.09,2.08,0.79,3.24,2.07
	l0.87-0.49l-2.63-4.52l-11.81,6.42l0.51,0.94c0.87-0.45,1.42-0.69,1.64-0.73c0.22-0.04,0.42,0.1,0.59,0.4l5.06,9.31
	c0.23,0.42,0.26,0.73,0.09,0.92c-0.17,0.19-0.66,0.51-1.49,0.94l0.51,0.94L85.8,39.46z M128.72,31.08l0-1.07l-1.1-0.02
	c-0.39-0.01-0.66-0.06-0.8-0.15c-0.14-0.09-0.22-0.32-0.22-0.68l-0.03-10.43c0-0.44,0.07-0.72,0.21-0.84
	c0.14-0.12,0.4-0.19,0.77-0.2l1.13-0.03l0-1.07l-7.8,0.02l0,1.07l1.28,0.03c0.29,0.01,0.5,0.07,0.63,0.18
	c0.13,0.12,0.2,0.38,0.2,0.78l0.03,10.24c0,0.35-0.04,0.62-0.13,0.8c-0.09,0.18-0.32,0.28-0.69,0.28l-1.28,0.02l0,1.07L128.72,31.08
	z M27.57,145.27l-5.26-1.17l4.56-2.83L27.57,145.27z M31.95,147.94c0.41,0.29,0.72,0.75,0.93,1.37l1.09-0.19l-0.99-5.66l-1.09,0.19
	c0.06,0.6,0.05,1.03-0.02,1.31c-0.13,0.49-0.45,0.78-0.97,0.87c-0.21,0.04-0.46,0.04-0.73,0.01c-0.16-0.01-0.33-0.04-0.5-0.08
	l-0.77-0.17l-0.88-5.03l2.21-1.37c0.04-0.03,0.08-0.05,0.13-0.07c0.04-0.02,0.09-0.03,0.13-0.04c0.27-0.05,0.47,0.08,0.6,0.37
	c0.08,0.18,0.16,0.53,0.24,1.04l1.09-0.19l-1.21-6.89l-1.05,0.18c0.08,0.58,0.06,0.99-0.03,1.23c-0.1,0.24-0.39,0.52-0.9,0.84
	l-11.3,7.26l0.26,1.48l11.4,2.68C30.75,147.36,31.54,147.65,31.95,147.94 M29.4,163.54c-1.18,0.14-2.12,0.15-2.84,0.04
	c-1.3-0.21-2.13-0.82-2.46-1.82c-0.11-0.33-0.13-0.56-0.06-0.68c0.07-0.12,0.21-0.21,0.4-0.27l10.25-3.45
	c0.31-0.1,0.56-0.11,0.75-0.03c0.19,0.09,0.34,0.26,0.44,0.51l0.5,1.35l0.98-0.33l-2.59-7.68l-1.01,0.34
	c0.35,1.03,0.52,1.66,0.51,1.89c-0.01,0.23-0.21,0.41-0.62,0.55l-9.98,3.36c-0.37,0.13-0.63,0.17-0.79,0.15
	c-0.16-0.03-0.29-0.2-0.4-0.52c-0.35-1.05-0.03-2.1,0.98-3.14c0.63-0.65,1.34-1.16,2.13-1.54l-0.32-0.95l-5.05,2.02l4.23,12.55
	l5.25-1.42L29.4,163.54z M44.3,172.87l-0.4-0.78l-1.69-0.54c0.16-0.72,0.17-1.45,0.04-2.19c-0.13-0.74-0.38-1.46-0.74-2.15
	c-0.7-1.35-1.67-2.25-2.9-2.71c-1.24-0.45-2.46-0.37-3.67,0.25c-1.43,0.74-2.22,1.83-2.39,3.27c-0.11,0.89,0.06,2.14,0.51,3.76
	l0.47,1.72c0.16,0.6,0.23,1.08,0.2,1.45c-0.05,0.68-0.38,1.17-0.97,1.48c-0.56,0.29-1.13,0.28-1.71-0.02
	c-0.58-0.3-1.04-0.79-1.39-1.46c-0.44-0.86-0.57-1.84-0.37-2.95c0.2-1.11,0.85-2.27,1.96-3.48l-0.47-0.88l-4.56,2.64l0.39,0.76
	l1.37,0.52c-0.07,0.6-0.08,1.1-0.03,1.5c0.07,0.71,0.3,1.43,0.68,2.16c0.71,1.38,1.66,2.32,2.84,2.81c1.18,0.49,2.37,0.43,3.59-0.2
	c1.44-0.74,2.2-1.97,2.3-3.67c0.06-0.92-0.11-2.04-0.51-3.38l-0.42-1.4c-0.21-0.74-0.3-1.29-0.25-1.64
	c0.09-0.66,0.46-1.15,1.11-1.49c0.62-0.32,1.24-0.33,1.86-0.02c0.62,0.31,1.1,0.8,1.46,1.48c0.62,1.21,0.73,2.42,0.32,3.63
	c-0.41,1.21-1.1,2.36-2.06,3.45l0.47,0.85L44.3,172.87z M124.68,120.86v38.1l36.78-36.78v-38.1L124.68,120.86z"/>
<path fill="#00A160" d="M124.68,120.86V92.54c0.01-7.69-3.34-14.64-8.97-20.35L93.15,49.68l0.02,25.41
	c-0.01,13.3,3.68,17.97,9.54,23.81L124.68,120.86z"/>
</svg>
